PathFileType	4	(X/Y/Z)	/Users/itak/Documents/Research/Walk-IL/dataset/trc/00579_00009.trc
DataRate	CameraRate	NumFrames	NumMarkers	Units	OrigDataRate	OrigDataStartFrame	OrigNumFrames
100.000000	100.000000	4	55	mm	100.000000	382	510
Frame#	Time	RPSI			LPSI			L3			STRN			T10			C7			CLAV			RBAK			LBAK			LSHO			LUPA			LAEL			LAOL			LWTS			LWPS			LFRA			LHTS			RSHO			RUPA			RAEL			RAOL			RWTS			RWPS			RFRA			RIFD			RHTS			RHPS			RBHD			LFHD			RFHD			LBHD			LHIP			RHIP			RASI			LASI			LKNE			LTHI			LANK			LTIP			LTOE			LMT1			LMT5			LHEE			RKNE			RTHI			RANK			RTIP			RTOE			RMT1			RMT5			RHEE			LHPS			LIFD			*53			*54			
		X1	Y1	Z1	X2	Y2	Z2	X3	Y3	Z3	X4	Y4	Z4	X5	Y5	Z5	X6	Y6	Z6	X7	Y7	Z7	X8	Y8	Z8	X9	Y9	Z9	X10	Y10	Z10	X11	Y11	Z11	X12	Y12	Z12	X13	Y13	Z13	X14	Y14	Z14	X15	Y15	Z15	X16	Y16	Z16	X17	Y17	Z17	X18	Y18	Z18	X19	Y19	Z19	X20	Y20	Z20	X21	Y21	Z21	X22	Y22	Z22	X23	Y23	Z23	X24	Y24	Z24	X25	Y25	Z25	X26	Y26	Z26	X27	Y27	Z27	X28	Y28	Z28	X29	Y29	Z29	X30	Y30	Z30	X31	Y31	Z31	X32	Y32	Z32	X33	Y33	Z33	X34	Y34	Z34	X35	Y35	Z35	X36	Y36	Z36	X37	Y37	Z37	X38	Y38	Z38	X39	Y39	Z39	X40	Y40	Z40	X41	Y41	Z41	X42	Y42	Z42	X43	Y43	Z43	X44	Y44	Z44	X45	Y45	Z45	X46	Y46	Z46	X47	Y47	Z47	X48	Y48	Z48	X49	Y49	Z49	X50	Y50	Z50	X51	Y51	Z51	X52	Y52	Z52	X53	Y53	Z53	X54	Y54	Z54	X55	Y55	Z55	

383	3.82	673.9036865234375	998.6956176757812	-95.57473754882812	552.9873046875	1005.877319335938	-153.7673797607422	610.6266479492188	1095.019897460938	-127.4837036132812	701.1424560546875	1290.83837890625	-332.2754211425781	606.3878173828125	1219.926147460938	-112.0480651855469	641.4073486328125	1495.005859375	-138.2970428466797	695.9035034179688	1401.302734375	-308.4473266601562	691.8141479492188	1364.423828125	-44.74240875244141	543.5477905273438	1444.3623046875	-143.8358612060547	501.9276733398438	1474.73486328125	-263.5929870605469	421.4373474121094	1349.003051757812	-284.41650390625	402.7284240722656	1129.866333007812	-312.8778381347656	431.238037109375	1117.788330078125	-214.6461181640625	471.64111328125	890.0118408203125	-398.1035461425781	389.6065063476562	867.821533203125	-377.4208984375	401.5498352050781	1044.57763671875	-339.66796875	456.1673889160156	812.4063110351562	-420.1784973144531	806.1661987304688	1453.133422851562	-134.1640777587891	859.8276977539062	1386.707153320312	-93.01319122314453	897.0669555664062	1097.899169921875	-72.29431915283203	850.449951171875	1080.637084960938	-30.33001136779785	915.9472045898438	872.6647338867188	-205.0729827880859	956.8650512695312	855.5078735351562	-135.7803649902344	907.9351196289062	1042.634643554688	-77.31048583984375	904.1390991210938	705.464111328125	-193.503173828125	938.2422485351562	778.4950561523438	-217.5024566650391	960.6104736328125	780.4949340820312	-147.0625762939453	743.885498046875	1676.04833984375	-186.7513732910156	660.4432983398438	1701.855834960938	-375.7447814941406	792.241943359375	1697.129516601562	-316.9505920410156	594.2227783203125	1680.05322265625	-261.4706420898438	484.3826293945312	928.114013671875	-323.1425170898438	835.7398681640625	931.92041015625	-165.9589080810547	815.8658447265625	970.1604614257812	-265.7330932617188	563.1812744140625	953.4948120117188	-374.2123107910156	522.5594482421875	478.3220825195312	-292.2297973632812	506.0713806152344	648.1019287109375	-320.7208251953125	388.30908203125	117.8290100097656	15.43425559997559	440.40283203125	299.053955078125	-122.6958084106445	561.6476440429688	37.35947418212891	-63.93882751464844	540.265625	69.80063629150391	-4.922246932983398	454.2604370117188	46.87155151367188	-58.93876647949219	395.3349914550781	173.1762084960938	82.37885284423828	833.9610595703125	510.2135314941406	-316.9102783203125	858.0115356445312	787.1229248046875	-233.0842590332031	815.751708984375	41.46775436401367	-263.1073303222656	828.9801025390625	364.1172485351562	-337.7381896972656	807.554931640625	39.72944259643555	-488.9002075195312	757.9208984375	41.09012222290039	-431.0740966796875	855.7020263671875	40.8354377746582	-390.8874816894531	752.002197265625	34.99510192871094	-218.8285675048828	399.0068664550781	803.6332397460938	-383.0086669921875	468.8102722167969	721.235595703125	-391.5812377929688	nan	nan	nan	nan	nan	nan	
384	3.83	678.4031982421875	999.8050537109375	-100.1727676391602	557.2803344726562	1006.846069335938	-158.0570373535156	615.1675415039062	1095.705810546875	-132.3516845703125	705.3194580078125	1291.560791015625	-336.9505615234375	610.9035034179688	1220.580322265625	-116.5754470825195	645.7228393554688	1495.677856445312	-142.7395935058594	700.0074462890625	1402.036499023438	-313.0343933105469	696.2257080078125	1365.06689453125	-49.43643951416016	547.9364624023438	1445.03369140625	-148.162353515625	506.0973510742188	1475.4130859375	-267.8370056152344	425.2836608886719	1349.806518554688	-288.3922119140625	405.6029968261719	1130.771850585938	-315.9945373535156	434.5461120605469	1118.869262695312	-217.8453674316406	472.8215026855469	890.158203125	-400.5628662109375	390.9855651855469	868.53955078125	-379.5331420898438	403.8601989746094	1045.379638671875	-342.4600830078125	456.9967651367188	812.578125	-422.2904968261719	810.4655151367188	1453.973266601562	-138.8149566650391	864.3087768554688	1387.638549804688	-97.74151611328125	902.188720703125	1098.84033203125	-77.57780456542969	855.8889770507812	1081.184692382812	-35.46757888793945	921.4923706054688	874.8391723632812	-212.1279907226562	962.364990234375	857.0721435546875	-142.9782104492188	913.1770629882812	1043.606323242188	-82.979736328125	910.5758056640625	707.4866333007812	-202.5616607666016	944.3156127929688	781.0225830078125	-225.5846252441406	966.5055541992188	782.2493896484375	-155.1130676269531	747.9619750976562	1676.7041015625	-191.0250091552734	664.1896362304688	1702.869506835938	-379.8490600585938	796.0504760742188	1698.10791015625	-321.2773132324219	598.2701416015625	1680.772094726562	-265.4285888671875	488.3679809570312	928.8714599609375	-327.2940368652344	839.969482421875	932.4503784179688	-170.6131439208984	820.0667114257812	970.4783325195312	-270.4927978515625	567.1356201171875	954.177734375	-378.4151916503906	525.0584716796875	478.6099548339844	-300.5600891113281	509.107177734375	648.8265380859375	-327.2132263183594	389.0454406738281	121.9264984130859	11.02280139923096	442.1480102539062	301.7804870605469	-128.7834320068359	561.874755859375	37.18184280395508	-64.61807250976562	540.6979370117188	71.61843872070312	-6.832833766937256	454.6370849609375	47.64589691162109	-60.99671936035156	396.4381103515625	178.8219146728516	76.54924774169922	836.0932006835938	509.7652893066406	-319.1994934082031	861.6060180664062	787.2392578125	-237.1881256103516	815.7130126953125	41.45726776123047	-263.1154479980469	830.3141479492188	363.6058349609375	-339.2839965820312	807.5468139648438	39.68502807617188	-488.9381103515625	757.8932495117188	41.06372451782227	-431.1133728027344	855.6810302734375	40.82489013671875	-390.9008483886719	751.9884643554688	35.04353713989258	-218.8383483886719	399.8293762207031	803.8194580078125	-385.1631164550781	469.3823852539062	721.4769897460938	-393.33740234375	nan	nan	nan	nan	nan	nan	
385	3.84	682.7822265625	1000.857971191406	-104.5861206054688	561.4263916015625	1007.717102050781	-162.1094665527344	619.558837890625	1096.389038085938	-136.9473571777344	709.39453125	1292.172241210938	-341.5089721679688	615.307373046875	1221.22265625	-121.0278549194336	649.9541625976562	1496.31787109375	-147.1578979492188	704.0399780273438	1402.676025390625	-317.5523071289062	700.5262451171875	1365.677612304688	-54.08413696289062	552.23291015625	1445.692993164062	-152.4534759521484	510.20751953125	1476.019409179688	-272.0935974121094	429.1048278808594	1350.520751953125	-292.4142456054688	408.5109252929688	1131.588989257812	-319.2191162109375	437.8056335449219	1119.839965820312	-221.1631927490234	474.0982971191406	890.2509765625	-403.095458984375	392.4644775390625	869.2030029296875	-381.7777709960938	406.2315063476562	1046.1025390625	-345.3670043945312	457.9169921875	812.7146606445312	-424.5245056152344	814.6912841796875	1454.768676757812	-143.4212951660156	868.6998291015625	1388.540405273438	-102.397590637207	907.2195434570312	1099.742797851562	-82.76406860351562	861.1796875	1081.729125976562	-40.57216262817383	927.00048828125	877.1049194335938	-219.20458984375	967.7794799804688	858.6553955078125	-150.2000579833984	918.33544921875	1044.546630859375	-88.57264709472656	917.0900268554688	709.6395874023438	-211.9428558349609	950.3947143554688	783.6956787109375	-233.7872314453125	972.337158203125	784.05712890625	-163.2655944824219	751.9283447265625	1677.30126953125	-195.2572326660156	667.8485717773438	1703.823486328125	-383.9135437011719	799.7678833007812	1699.051391601562	-325.5484313964844	602.2049560546875	1681.397094726562	-269.3745422363281	492.2202453613281	929.5542602539062	-331.2910766601562	844.0531616210938	932.9110107421875	-175.1027374267578	824.0816040039062	970.7140502929688	-275.0824584960938	570.9002075195312	954.8016357421875	-382.4308776855469	527.80029296875	478.8272094726562	-309.0179748535156	512.2467651367188	649.4619140625	-333.72216796875	389.8565979003906	126.1348190307617	6.338721752166748	444.0606384277344	304.3998107910156	-135.1571197509766	562.1526489257812	36.86270523071289	-65.48986053466797	541.1538696289062	73.63198089599609	-8.99433422088623	455.0459289550781	48.58565902709961	-63.1728401184082	397.5245971679688	184.5011596679688	70.46970367431641	838.1170654296875	509.3033142089844	-321.4197387695312	865.0903930664062	787.3130493164062	-241.1865844726562	815.6931762695312	41.44784927368164	-263.1157531738281	831.5806884765625	363.0918884277344	-340.7855834960938	807.541748046875	39.64976119995117	-488.97265625	757.864501953125	41.03134536743164	-431.1463928222656	855.6777954101562	40.81980514526367	-390.9137878417969	751.9844360351562	35.08585739135742	-218.8443908691406	400.816650390625	803.9437866210938	-387.5223999023438	470.0404968261719	721.676025390625	-395.2828369140625	nan	nan	nan	nan	nan	nan	
386	3.85	687.0435180664062	1001.845520019531	-108.8145294189453	565.4361572265625	1008.498657226562	-165.9172210693359	623.816162109375	1097.066528320312	-141.2556304931641	713.3446655273438	1292.682739257812	-345.9483642578125	619.6090087890625	1221.862426757812	-125.3923950195312	654.1082153320312	1496.930786132812	-151.5401306152344	707.9861450195312	1403.22802734375	-322.0006713867188	704.732421875	1366.259399414062	-58.68273162841797	556.437255859375	1446.338745117188	-156.6881103515625	514.2492065429688	1476.5673828125	-276.3322448730469	432.8921508789062	1351.163818359375	-296.4500427246094	411.4613647460938	1132.3291015625	-322.5446166992188	441.0403747558594	1120.69873046875	-224.6038970947266	475.4909973144531	890.3096313476562	-405.7216186523438	394.0168151855469	869.8192138671875	-384.1389465332031	408.6778869628906	1046.758911132812	-348.3878784179688	458.9292297363281	812.8197631835938	-426.8763732910156	818.8492431640625	1455.518310546875	-147.9978179931641	873.01220703125	1389.408203125	-107.0060272216797	912.1644287109375	1100.60498046875	-87.87171173095703	866.3311157226562	1082.272338867188	-45.65520477294922	932.447509765625	879.4390869140625	-226.2862396240234	973.0995483398438	860.2489624023438	-157.4328918457031	923.4140625	1045.454956054688	-94.10227966308594	923.6724853515625	711.9270629882812	-221.6156616210938	956.4510498046875	786.4893798828125	-242.0837860107422	978.0906982421875	785.9097900390625	-171.4937133789062	755.7951049804688	1677.846557617188	-199.4530334472656	671.419921875	1704.71484375	-387.93994140625	803.3978271484375	1699.949829101562	-329.7680969238281	606.030517578125	1681.938598632812	-273.3078002929688	495.9348449707031	930.173095703125	-335.1260681152344	847.998779296875	933.3016357421875	-179.4297943115234	827.9057006835938	970.8770751953125	-279.4973449707031	574.473876953125	955.3867797851562	-386.2592163085938	530.7997436523438	478.9938354492188	-317.5924072265625	515.5001831054688	650.0263671875	-340.2433776855469	390.7978515625	130.4357299804688	1.402602553367615	446.1971740722656	306.8729248046875	-141.8718414306641	562.4796142578125	36.39945220947266	-66.65541076660156	541.629150390625	75.85820770263672	-11.52481555938721	455.511962890625	49.73341751098633	-65.47884368896484	398.6590270996094	190.2161407470703	64.16241455078125	840.0275268554688	508.8289184570312	-323.5796508789062	868.451171875	787.3406372070312	-245.0746612548828	815.6878662109375	41.43989181518555	-263.1095886230469	832.7778930664062	362.5755310058594	-342.2534790039062	807.5368041992188	39.62111282348633	-489.0041198730469	757.8297729492188	40.98932647705078	-431.1727294921875	855.6876220703125	40.8201904296875	-390.9283447265625	751.9874267578125	35.12102890014648	-218.8464202880859	402.0143737792969	804.017822265625	-390.1028442382812	470.794677734375	721.8451538085938	-397.4073486328125	nan	nan	nan	nan	nan	nan	
